<svg width="1060" height="270" viewBox="0 0 1060 270" xmlns="http://www.w3.org/2000/svg">
  <rect width="1060" height="270" fill="#f4ede1"/>
  <text x="70" y="46" font-family="Arial" font-size="28" font-weight="700" fill="#1f1a16">Quality Gate</text>
  <text x="842" y="46" font-family="Arial" font-size="16" fill="#8a7a68">ship only when checked</text>
  <rect x="70" y="86" width="430" height="58" rx="12" fill="white" stroke="#a8854a" stroke-width="1.5"/><circle cx="102" cy="115" r="12" fill="#a8854a"/><path d="M95 115 l5 5 l10 -13" stroke="white" stroke-width="3" fill="none" stroke-linecap="round" stroke-linejoin="round"/><text x="128" y="123" font-family="Arial" font-size="21" fill="#1f1a16">A4</text><rect x="570" y="86" width="430" height="58" rx="12" fill="white" stroke="#a8854a" stroke-width="1.5"/><circle cx="602" cy="115" r="12" fill="#a8854a"/><path d="M595 115 l5 5 l10 -13" stroke="white" stroke-width="3" fill="none" stroke-linecap="round" stroke-linejoin="round"/><text x="628" y="123" font-family="Arial" font-size="21" fill="#1f1a16">No overflow</text><rect x="70" y="172" width="430" height="58" rx="12" fill="white" stroke="#a8854a" stroke-width="1.5"/><circle cx="102" cy="201" r="12" fill="#a8854a"/><path d="M95 201 l5 5 l10 -13" stroke="white" stroke-width="3" fill="none" stroke-linecap="round" stroke-linejoin="round"/><text x="128" y="209" font-family="Arial" font-size="21" fill="#1f1a16">HTML kept</text><rect x="570" y="172" width="430" height="58" rx="12" fill="white" stroke="#a8854a" stroke-width="1.5"/><circle cx="602" cy="201" r="12" fill="#a8854a"/><path d="M595 201 l5 5 l10 -13" stroke="white" stroke-width="3" fill="none" stroke-linecap="round" stroke-linejoin="round"/><text x="628" y="209" font-family="Arial" font-size="21" fill="#1f1a16">Content fidelity</text>
</svg>